HIERARCHY
ROOT hips
{
	OFFSET -0.003675 0.299928 -0.021708
	CHANNELS 6 Xposition Yposition Zposition Xrotation Yrotation Zrotation
	JOINT LowerBack
	{
		OFFSET 0.000919 0.177588 0.009275
		CHANNELS 3 Xrotation Yrotation Zrotation
		JOINT spine
		{
			OFFSET 0.000919 0.177588 0.009275
			CHANNELS 3 Xrotation Yrotation Zrotation
			JOINT chest
			{
				OFFSET 0.000456 0.100015 0.004638
				CHANNELS 3 Xrotation Yrotation Zrotation
				JOINT neck
				{
					OFFSET 0.000456 0.100015 0.004638
					CHANNELS 3 Xrotation Yrotation Zrotation
					JOINT head
					{
						OFFSET 0.000924 0.155147 0.009274
						CHANNELS 6 Xposition Yposition Zposition Xrotation Yrotation Zrotation
						End Site
						{
							OFFSET 0.000000 0.153400 0.000000
						}
					}
				}
				JOINT shoulder.L
				{
					OFFSET 0.019937 0.078966 0.057518
					CHANNELS 6 Xposition Yposition Zposition Yrotation Xrotation Zrotation
					JOINT upper_arm.L
					{
						OFFSET 0.177024 -0.020465 -0.095062
						CHANNELS 6 Xposition Yposition Zposition Xrotation Yrotation Zrotation
						JOINT forearm.L
						{
							OFFSET 0.247100 -0.135500 -0.061800
							CHANNELS 3 Xrotation Yrotation Zrotation
							JOINT hand.L
							{
								OFFSET 0.217000 -0.143000 0.039300
								CHANNELS 3 Xrotation Yrotation Zrotation
								JOINT palm.01.L
								{
									OFFSET 0.021770 -0.038291 0.012954
									CHANNELS 6 Xposition Yposition Zposition Yrotation Xrotation Zrotation
									JOINT f_index.01.L
									{
										OFFSET 0.053215 -0.044137 0.008236
										CHANNELS 3 Xrotation Yrotation Zrotation
										JOINT f_index.02.L
										{
											OFFSET 0.036108 -0.024723 -0.010656
											CHANNELS 3 Xrotation Yrotation Zrotation
											JOINT f_index.03.L
											{
												OFFSET 0.021342 -0.014948 -0.010846
												CHANNELS 3 Xrotation Yrotation Zrotation
												End Site
												{
													OFFSET 0.015600 -0.009860 -0.013421
												}
											}
										}
									}
									JOINT thumb.01.L
									{
										OFFSET -0.009090 -0.002348 -0.024223
										CHANNELS 6 Xposition Yposition Zposition Xrotation Yrotation Zrotation
										JOINT thumb.02.L
										{
											OFFSET 0.019713 -0.035076 -0.011120
											CHANNELS 3 Xrotation Yrotation Zrotation
											JOINT thumb.03.L
											{
												OFFSET 0.024877 -0.021748 -0.005176
												CHANNELS 3 Xrotation Yrotation Zrotation
												End Site
												{
													OFFSET 0.016125 -0.013029 -0.001569
												}
											}
										}
									}
								}
								JOINT palm.02.L
								{
									OFFSET 0.032823 -0.025104 0.012281
									CHANNELS 6 Xposition Yposition Zposition Yrotation Xrotation Zrotation
									JOINT f_middle.01.L
									{
										OFFSET 0.055723 -0.038469 0.008037
										CHANNELS 3 Xrotation Yrotation Zrotation
										JOINT f_middle.02.L
										{
											OFFSET 0.038167 -0.027473 -0.015582
											CHANNELS 3 Xrotation Yrotation Zrotation
											JOINT f_middle.03.L
											{
												OFFSET 0.021707 -0.016587 -0.017037
												CHANNELS 3 Xrotation Yrotation Zrotation
												End Site
												{
													OFFSET 0.014112 -0.010584 -0.014294
												}
											}
										}
									}
								}
								JOINT palm.03.L
								{
									OFFSET 0.039230 -0.011402 0.008390
									CHANNELS 6 Xposition Yposition Zposition Yrotation Xrotation Zrotation
									JOINT f_ring.01.L
									{
										OFFSET 0.061796 -0.031470 0.007910
										CHANNELS 3 Xrotation Yrotation Zrotation
										JOINT f_ring.02.L
										{
											OFFSET 0.033092 -0.023401 -0.019127
											CHANNELS 3 Xrotation Yrotation Zrotation
											JOINT f_ring.03.L
											{
												OFFSET 0.021392 -0.015362 -0.017824
												CHANNELS 3 Xrotation Yrotation Zrotation
												End Site
												{
													OFFSET 0.008670 -0.007297 -0.014686
												}
											}
										}
									}
								}
								JOINT palm.04.L
								{
									OFFSET 0.043417 0.002450 0.002889
									CHANNELS 6 Xposition Yposition Zposition Yrotation Xrotation Zrotation
									JOINT f_pinky.01.L
									{
										OFFSET 0.069986 -0.026156 0.003627
										CHANNELS 3 Xrotation Yrotation Zrotation
										JOINT f_pinky.02.L
										{
											OFFSET 0.018520 -0.012813 -0.016429
											CHANNELS 3 Xrotation Yrotation Zrotation
											JOINT f_pinky.03.L
											{
												OFFSET 0.013822 -0.009796 -0.014947
												CHANNELS 3 Xrotation Yrotation Zrotation
												End Site
												{
													OFFSET 0.007238 -0.006103 -0.011657
												}
											}
										}
									}
								}
							}
						}
					}
				}
				JOINT shoulder.R
				{
					OFFSET -0.016662 0.078957 0.057696
					CHANNELS 6 Xposition Yposition Zposition Yrotation Xrotation Zrotation
					JOINT upper_arm.R
					{
						OFFSET -0.176972 -0.020537 -0.095144
						CHANNELS 6 Xposition Yposition Zposition Xrotation Yrotation Zrotation
						JOINT forearm.R
						{
							OFFSET -0.247100 -0.135500 -0.061800
							CHANNELS 3 Xrotation Yrotation Zrotation
							JOINT hand.R
							{
								OFFSET -0.217000 -0.143000 0.039300
								CHANNELS 3 Xrotation Yrotation Zrotation
								JOINT palm.01.R
								{
									OFFSET -0.021773 -0.038278 0.012988
									CHANNELS 6 Xposition Yposition Zposition Yrotation Xrotation Zrotation
									JOINT f_index.01.R
									{
										OFFSET -0.053212 -0.044139 0.008249
										CHANNELS 3 Xrotation Yrotation Zrotation
										JOINT f_index.02.R
										{
											OFFSET -0.036049 -0.024835 -0.010634
											CHANNELS 3 Xrotation Yrotation Zrotation
											JOINT f_index.03.R
											{
												OFFSET -0.021371 -0.014881 -0.010866
												CHANNELS 3 Xrotation Yrotation Zrotation
												End Site
												{
													OFFSET -0.015584 -0.009883 -0.013422
												}
											}
										}
									}
									JOINT thumb.01.R
									{
										OFFSET 0.009113 -0.002381 -0.024211
										CHANNELS 6 Xposition Yposition Zposition Xrotation Yrotation Zrotation
										JOINT thumb.02.R
										{
											OFFSET -0.019694 -0.035097 -0.011088
											CHANNELS 3 Xrotation Yrotation Zrotation
											JOINT thumb.03.R
											{
												OFFSET -0.024867 -0.021762 -0.005168
												CHANNELS 3 Xrotation Yrotation Zrotation
												End Site
												{
													OFFSET -0.016120 -0.013036 -0.001565
												}
											}
										}
									}
								}
								JOINT palm.02.R
								{
									OFFSET -0.032828 -0.025095 0.012286
									CHANNELS 6 Xposition Yposition Zposition Yrotation Xrotation Zrotation
									JOINT f_middle.01.R
									{
										OFFSET -0.055721 -0.038472 0.008040
										CHANNELS 3 Xrotation Yrotation Zrotation
										JOINT f_middle.02.R
										{
											OFFSET -0.038101 -0.027593 -0.015557
											CHANNELS 3 Xrotation Yrotation Zrotation
											JOINT f_middle.03.R
											{
												OFFSET -0.021730 -0.016530 -0.017054
												CHANNELS 3 Xrotation Yrotation Zrotation
												End Site
												{
													OFFSET -0.014096 -0.010608 -0.014293
												}
											}
										}
									}
								}
								JOINT palm.03.R
								{
									OFFSET -0.039192 -0.011488 0.008390
									CHANNELS 6 Xposition Yposition Zposition Yrotation Xrotation Zrotation
									JOINT f_ring.01.R
									{
										OFFSET -0.061839 -0.031387 0.007876
										CHANNELS 3 Xrotation Yrotation Zrotation
										JOINT f_ring.02.R
										{
											OFFSET -0.033068 -0.023437 -0.019125
											CHANNELS 3 Xrotation Yrotation Zrotation
											JOINT f_ring.03.R
											{
												OFFSET -0.021371 -0.015393 -0.017822
												CHANNELS 3 Xrotation Yrotation Zrotation
												End Site
												{
													OFFSET -0.008654 -0.007321 -0.014684
												}
											}
										}
									}
								}
								JOINT palm.04.R
								{
									OFFSET -0.043421 0.002443 0.002845
									CHANNELS 6 Xposition Yposition Zposition Yrotation Xrotation Zrotation
									JOINT f_pinky.01.R
									{
										OFFSET -0.069983 -0.026169 0.003599
										CHANNELS 3 Xrotation Yrotation Zrotation
										JOINT f_pinky.02.R
										{
											OFFSET -0.018501 -0.012842 -0.016428
											CHANNELS 3 Xrotation Yrotation Zrotation
											JOINT f_pinky.03.R
											{
												OFFSET -0.013806 -0.009821 -0.014946
												CHANNELS 3 Xrotation Yrotation Zrotation
												End Site
												{
													OFFSET -0.007226 -0.006121 -0.011655
												}
											}
										}
									}
								}
							}
						}
					}
				}
			}
		}
	}
	JOINT pelvis.L
	{
		OFFSET 0.000000 0.000000 0.000000
		CHANNELS 6 Xposition Yposition Zposition Xrotation Yrotation Zrotation
		JOINT thigh.L
		{
			OFFSET 0.101675 0.001054 -0.000000
			CHANNELS 3 Xrotation Yrotation Zrotation
			JOINT shin.L
			{
				OFFSET 0.000000 -0.534800 0.041000
				CHANNELS 3 Xrotation Yrotation Zrotation
				JOINT foot.L
				{
					OFFSET 0.000000 -0.452000 -0.044800
					CHANNELS 3 Xrotation Yrotation Zrotation
					JOINT toe.L
					{
						OFFSET -0.000000 -0.068500 0.109600
						CHANNELS 3 Xrotation Yrotation Zrotation
						End Site
						{
							OFFSET -0.000000 0.000000 0.067200
						}
					}
				}
				JOINT heel.L
				{
					OFFSET 0.000000 -0.452000 -0.044800
					CHANNELS 3 Xrotation Yrotation Zrotation
					JOINT heel.02.L
					{
						OFFSET -0.038000 -0.085200 0.016200
						CHANNELS 6 Xposition Yposition Zposition Xrotation Yrotation Zrotation
						End Site
						{
							OFFSET 0.080000 -0.000000 0.000000
						}
					}
				}
			}
		}
	}
	JOINT pelvis.R
	{
		OFFSET 0.000000 0.000000 0.000000
		CHANNELS 6 Xposition Yposition Zposition Xrotation Yrotation Zrotation
		JOINT thigh.R
		{
			OFFSET -0.094325 0.001054 0.000000
			CHANNELS 3 Xrotation Yrotation Zrotation
			JOINT shin.R
			{
				OFFSET 0.000000 -0.534800 0.041000
				CHANNELS 3 Xrotation Yrotation Zrotation
				JOINT foot.R
				{
					OFFSET 0.000000 -0.452000 -0.044800
					CHANNELS 3 Xrotation Yrotation Zrotation
					JOINT toe.R
					{
						OFFSET -0.000000 -0.068500 0.109600
						CHANNELS 3 Xrotation Yrotation Zrotation
						End Site
						{
							OFFSET -0.000000 0.000000 0.067200
						}
					}
				}
				JOINT heel.R
				{
					OFFSET 0.000000 -0.452000 -0.044800
					CHANNELS 3 Xrotation Yrotation Zrotation
					JOINT heel.02.R
					{
						OFFSET 0.038000 -0.085200 0.016200
						CHANNELS 6 Xposition Yposition Zposition Xrotation Yrotation Zrotation
						End Site
						{
							OFFSET -0.080000 0.000000 -0.000000
						}
					}
				}
			}
		}
	}
}
MOTION
Frames: 4
Frame Time: 0.041667
-0.016561 0.218403 -0.038311 -10.246839 21.310154 58.819117 -0.000002 0.000000 0.000003 -0.000001 0.000003 0.000003 0.000003 0.000001 0.000000 0.000002 -0.000000 -0.000002 0.000924 0.155148 0.009274 -23.934168 0.092472 -16.089825 0.019937 0.078966 0.057518 54.866363 13.077787 13.809053 0.177024 -0.020465 -0.095062 -199.287926 -186.479956 -224.535611 -45.266631 18.217373 270.908607 -0.000001 0.000001 -0.000003 0.021770 -0.038291 0.012954 -0.000001 -0.000002 0.000001 -0.000000 0.000000 0.000001 -0.000000 0.000001 0.000003 -0.000000 0.000002 0.000003 -0.009090 -0.002348 -0.024224 0.000001 -0.000001 0.000001 -0.000002 -0.000001 0.000003 -0.000001 0.000000 -0.000004 0.032823 -0.025104 0.012281 -0.000002 0.000000 -0.000001 0.000000 0.000001 -0.000003 -0.000003 -0.000005 0.000003 0.000000 -0.000002 0.000002 0.039230 -0.011402 0.008390 0.000000 0.000000 0.000003 0.000003 -0.000000 -0.000002 0.000002 0.000000 -0.000001 0.000001 0.000000 0.000004 0.043417 0.002450 0.002889 -0.000001 0.000002 -0.000003 0.000001 -0.000003 0.000001 -0.000001 0.000003 -0.000005 0.000004 -0.000001 -0.000001 -0.016662 0.078957 0.057696 77.308903 14.740557 -40.701900 -0.176972 -0.020537 -0.095144 -16.751051 -16.549753 66.483115 128.790976 204.733609 -92.951177 -0.000004 0.000003 -0.000000 -0.021773 -0.038278 0.012988 0.000002 -0.000005 0.000000 0.000000 -0.000001 0.000002 -0.000000 0.000001 -0.000001 -0.000003 -0.000002 0.000003 0.009113 -0.002381 -0.024211 0.000002 -0.000004 0.000002 0.000001 -0.000001 -0.000001 -0.000002 -0.000001 -0.000003 -0.032828 -0.025095 0.012286 0.000003 -0.000003 0.000001 0.000002 -0.000003 0.000000 0.000000 -0.000000 -0.000007 -0.000001 0.000004 -0.000000 -0.039192 -0.011488 0.008390 0.000000 0.000002 0.000001 0.000002 0.000001 -0.000002 0.000001 -0.000001 0.000002 -0.000004 0.000000 0.000002 -0.043421 0.002443 0.002845 0.000002 -0.000003 -0.000002 -0.000001 0.000000 -0.000006 -0.000001 -0.000001 -0.000000 0.000001 0.000003 -0.000001 -0.000000 0.000000 0.000000 -2.537933 -2.961411 27.232109 -107.073358 -3.500273 -46.817207 165.642196 -2.443239 25.501584 -0.000002 0.000001 -0.000001 0.000001 0.000000 -0.000000 0.000002 0.000002 -0.000001 -0.038000 -0.085200 0.016200 -0.000002 -0.000002 0.000001 -0.000000 0.000000 0.000000 -2.596922 -2.992505 28.463230 -97.852569 -0.037576 -5.311843 113.027432 -5.125811 64.830701 0.000000 0.000000 0.000000 0.000001 0.000004 0.000002 0.000003 0.000001 0.000000 0.038000 -0.085200 0.016200 -0.000000 0.000003 0.000001 
-0.017888 0.215211 -0.039223 -16.845108 24.550620 63.917402 0.000001 -0.000002 0.000001 -0.000001 -0.000002 0.000001 0.000002 -0.000001 -0.000001 -0.000002 -0.000002 0.000003 0.000924 0.155147 0.009274 -24.829717 0.089531 -21.872048 0.019937 0.078966 0.057518 52.038136 11.295138 14.143748 0.177024 -0.020465 -0.095062 -203.623744 -183.187654 -218.450500 -39.809225 23.250877 258.402258 -0.000000 0.000001 0.000003 0.021770 -0.038291 0.012954 -0.000002 -0.000000 0.000001 -0.000000 -0.000000 -0.000000 -0.000002 -0.000000 0.000010 0.000000 0.000003 -0.000000 -0.009090 -0.002348 -0.024223 -0.000000 -0.000001 -0.000003 -0.000000 -0.000001 0.000001 0.000001 -0.000000 -0.000002 0.032823 -0.025104 0.012281 -0.000004 -0.000001 0.000005 -0.000001 -0.000003 -0.000004 -0.000004 -0.000003 0.000001 -0.000005 -0.000003 -0.000001 0.039230 -0.011402 0.008390 -0.000001 -0.000002 0.000006 0.000001 0.000002 -0.000002 -0.000002 0.000006 -0.000004 0.000002 -0.000002 0.000003 0.043417 0.002450 0.002889 -0.000003 -0.000000 -0.000002 -0.000004 -0.000001 -0.000000 -0.000000 -0.000002 0.000000 -0.000001 -0.000003 -0.000003 -0.016662 0.078956 0.057696 72.337372 9.363231 -35.830776 -0.176972 -0.020537 -0.095144 -12.179375 -15.713494 59.414586 133.439575 205.752782 -86.983176 0.000004 -0.000001 0.000002 -0.021773 -0.038278 0.012988 -0.000001 0.000001 0.000002 0.000001 -0.000001 -0.000005 0.000004 -0.000000 -0.000005 -0.000001 0.000000 0.000003 0.009114 -0.002381 -0.024212 0.000002 -0.000004 0.000000 0.000003 -0.000003 -0.000002 0.000002 -0.000003 -0.000003 -0.032828 -0.025095 0.012286 0.000000 -0.000001 0.000001 0.000003 -0.000001 -0.000001 -0.000000 0.000003 -0.000000 -0.000001 0.000002 0.000002 -0.039192 -0.011488 0.008390 -0.000002 0.000001 0.000001 0.000000 0.000001 -0.000002 -0.000001 -0.000001 0.000002 -0.000003 0.000001 -0.000000 -0.043421 0.002443 0.002845 0.000000 -0.000000 0.000005 -0.000004 0.000008 -0.000002 -0.000004 -0.000001 -0.000000 0.000001 -0.000002 0.000002 -0.000000 0.000000 -0.000000 -2.776784 -2.686665 24.032068 -116.124308 -3.414893 -45.524686 162.320402 -1.862665 19.157007 0.000000 -0.000002 -0.000001 -0.000000 -0.000002 0.000004 -0.000003 -0.000000 -0.000000 -0.038000 -0.085200 0.016200 0.000004 0.000001 -0.000000 0.000000 0.000000 0.000000 -2.825903 -2.709152 25.263943 -101.195721 -0.151668 -6.804165 118.421765 -4.896724 59.815334 0.000000 0.000003 -0.000001 0.000002 -0.000002 -0.000001 0.000003 -0.000002 0.000001 0.038000 -0.085200 0.016200 -0.000001 0.000001 -0.000003 
-0.018262 0.209957 -0.040691 -23.807007 26.196436 69.670586 -0.000001 0.000002 -0.000002 -0.000002 0.000001 -0.000000 -0.000000 -0.000003 -0.000002 -0.000002 -0.000001 0.000001 0.000924 0.155148 0.009274 -19.724039 0.060614 -24.249928 0.019937 0.078966 0.057518 41.901585 6.618242 17.598537 0.177025 -0.020465 -0.095062 -200.876861 -182.768335 -212.333683 -30.409747 22.096476 242.189055 -0.000002 -0.000002 -0.000000 0.021770 -0.038291 0.012954 -0.000001 0.000002 0.000001 -0.000002 -0.000003 0.000001 0.000001 0.000000 -0.000000 0.000001 0.000004 0.000004 -0.009090 -0.002348 -0.024224 0.000001 -0.000002 0.000003 0.000000 0.000001 0.000001 -0.000000 -0.000001 0.000001 0.032823 -0.025104 0.012281 -0.000001 0.000002 0.000005 -0.000001 0.000002 0.000002 -0.000003 -0.000001 0.000005 -0.000002 0.000001 0.000003 0.039230 -0.011402 0.008390 0.000000 0.000000 0.000001 0.000001 0.000001 -0.000002 -0.000000 0.000005 -0.000001 -0.000000 -0.000006 0.000003 0.043417 0.002450 0.002889 -0.000003 0.000002 -0.000002 0.000001 -0.000001 -0.000002 0.000001 -0.000005 -0.000004 -0.000001 -0.000001 -0.000001 -0.016662 0.078957 0.057696 56.215093 2.249932 -34.938791 -0.176972 -0.020537 -0.095144 -15.261522 -14.832866 55.187703 140.821316 197.514618 -85.227777 0.000003 0.000002 0.000003 -0.021773 -0.038278 0.012988 0.000001 -0.000000 -0.000002 -0.000002 0.000006 -0.000001 0.000001 0.000001 -0.000002 0.000001 0.000002 0.000001 0.009114 -0.002381 -0.024212 -0.000001 0.000003 -0.000000 0.000005 -0.000005 0.000000 -0.000001 -0.000002 -0.000003 -0.032828 -0.025095 0.012286 0.000004 -0.000000 -0.000001 0.000001 0.000003 0.000001 0.000006 0.000002 -0.000001 0.000001 0.000003 -0.000000 -0.039192 -0.011488 0.008390 0.000001 0.000006 0.000007 -0.000001 0.000006 -0.000002 0.000002 -0.000002 0.000005 -0.000000 0.000000 -0.000004 -0.043421 0.002442 0.002845 0.000001 0.000003 0.000004 -0.000005 0.000003 -0.000001 -0.000003 -0.000005 0.000000 -0.000006 0.000001 0.000001 -0.000000 0.000000 -0.000000 -2.895279 -2.695968 23.665465 -116.139471 -2.776215 -34.556697 161.091828 -1.325437 13.502393 -0.000002 0.000001 -0.000001 -0.000003 -0.000000 -0.000001 0.000003 -0.000001 0.000002 -0.038000 -0.085200 0.016200 -0.000002 0.000002 -0.000003 -0.000000 0.000000 -0.000000 -2.945250 -2.718455 24.897296 -102.598239 -0.310745 -8.919520 126.093065 -4.563763 53.647311 0.000000 0.000003 -0.000003 0.000004 -0.000002 -0.000001 0.000003 0.000001 -0.000004 0.038000 -0.085200 0.016200 -0.000003 0.000001 -0.000001 
-0.017407 0.212692 -0.040672 -21.156513 23.255486 68.858648 0.000001 0.000000 -0.000002 0.000003 -0.000001 -0.000002 -0.000000 -0.000001 -0.000003 0.000000 -0.000002 -0.000003 0.000924 0.155147 0.009274 -19.362847 0.061341 -22.124748 0.019937 0.078966 0.057518 40.728958 6.786893 18.198257 0.177024 -0.020465 -0.095062 -201.848742 -184.063407 -217.197461 -32.639261 16.560916 252.566653 -0.000002 0.000000 0.000003 0.021770 -0.038291 0.012954 0.000001 -0.000000 0.000005 -0.000001 -0.000003 0.000003 -0.000003 -0.000000 0.000010 0.000002 0.000003 -0.000002 -0.009090 -0.002348 -0.024223 0.000001 -0.000001 0.000001 -0.000001 0.000001 0.000005 -0.000000 -0.000000 -0.000001 0.032823 -0.025104 0.012281 -0.000001 0.000001 0.000012 -0.000002 0.000001 0.000000 -0.000002 0.000003 0.000001 -0.000001 0.000001 0.000003 0.039230 -0.011402 0.008390 -0.000000 0.000001 0.000008 0.000001 0.000001 0.000003 -0.000000 0.000003 0.000001 0.000002 -0.000004 0.000002 0.043417 0.002450 0.002889 -0.000001 0.000001 0.000002 -0.000004 -0.000003 0.000003 0.000002 0.000005 0.000001 0.000004 0.000002 -0.000004 -0.016662 0.078957 0.057696 56.593216 3.610753 -35.490845 -0.176972 -0.020537 -0.095144 -19.046537 -14.770043 56.853470 142.719644 194.966425 -84.882879 -0.000003 0.000005 -0.000001 -0.021773 -0.038278 0.012988 0.000000 0.000001 -0.000003 0.000001 0.000003 0.000004 -0.000001 -0.000000 -0.000006 -0.000000 -0.000005 0.000003 0.009114 -0.002381 -0.024212 0.000003 -0.000001 0.000001 0.000000 0.000000 -0.000003 0.000003 -0.000003 -0.000004 -0.032828 -0.025095 0.012286 0.000001 0.000003 -0.000003 0.000001 0.000001 0.000001 0.000001 0.000000 -0.000002 -0.000003 -0.000002 -0.000003 -0.039192 -0.011488 0.008390 -0.000002 0.000002 0.000001 0.000001 0.000003 0.000000 0.000001 -0.000008 -0.000000 0.000002 -0.000003 -0.000001 -0.043421 0.002443 0.002845 -0.000000 0.000002 0.000002 -0.000005 0.000002 -0.000001 0.000000 -0.000003 0.000002 -0.000001 -0.000002 -0.000003 -0.000000 0.000000 -0.000000 -2.704304 -2.307960 21.110054 -111.234043 -2.755880 -34.075616 157.647241 -1.145081 11.637041 0.000002 0.000000 -0.000001 -0.000001 0.000001 0.000001 0.000002 0.000001 -0.000003 -0.038000 -0.085200 0.016200 -0.000001 0.000002 0.000002 0.000000 0.000000 0.000000 -2.737873 -2.321307 22.342887 -99.501404 -0.238179 -7.994269 129.423356 -4.646848 55.095851 -0.000002 0.000000 -0.000001 -0.000001 0.000003 -0.000005 0.000003 -0.000001 -0.000001 0.038000 -0.085200 0.016200 -0.000002 -0.000003 0.000000 
